<svg xmlns="http://www.w3.org/2000/svg" viewBox="0 0 100 125"><path d="M28.8 84.1h36c7.2 0 13-5.8 13-13v-22c0-1.7-1.3-3-3-3s-3 1.3-3 3v22c0 3.9-3.1 7-7 7h-36c-3.9 0-7-3.1-7-7v-36c0-3.9 3.1-7 7-7h22c1.7 0 3-1.3 3-3s-1.3-3-3-3h-22c-7.2 0-13 5.8-13 13v36c0 7.2 5.8 13 13 13z"/><path d="M84.2 37.2V18.9c0-.2 0-.4-.1-.6 0-.1 0-.2-.1-.2 0-.1-.1-.2-.1-.3 0-.1-.1-.2-.2-.3 0-.1-.1-.2-.1-.2-.2-.3-.5-.6-.8-.8l-.2-.1c-.2-.3-.4-.4-.6-.4l-.3-.1c-.2 0-.4-.1-.6-.1H62.8c-1.7 0-3 1.3-3 3s1.3 3 3 3h11.1L46.4 49.4c-1.2 1.2-1.2 3.1 0 4.2 1.2 1.2 3.1 1.2 4.2 0l27.6-27.5v11.1c0 1.7 1.3 3 3 3 1.6 0 2.9-1.4 3-3z"/></svg>
